<?xml version="1.0" encoding="UTF-8"?>
<!DOCTYPE svg PUBLIC "-//W3C//DTD SVG 1.1//EN" "http://www.w3.org/Graphics/SVG/1.1/DTD/svg11.dtd">
<!-- Creator: CorelDRAW (Versão OEM) -->
<svg xmlns="http://www.w3.org/2000/svg" xml:space="preserve" width="1600px" height="1200px" version="1.1" style="shape-rendering:geometricPrecision; text-rendering:geometricPrecision; image-rendering:optimizeQuality; fill-rule:evenodd; clip-rule:evenodd"
viewBox="0 0 1600 1200"
 xmlns:xlink="http://www.w3.org/1999/xlink"
 xmlns:xodm="http://www.corel.com/coreldraw/odm/2003">
 <defs>
  <style type="text/css">
   <![CDATA[
    .fil0 {fill:#FEFEFE;fill-rule:nonzero}
   ]]>
  </style>
 </defs>
 <g id="Camada_x0020_1">
  <metadata id="CorelCorpID_0Corel-Layer"/>
  <path id="envelope.svg" class="fil0" d="M150 0c-82.81,0 -150,67.19 -150,150 0,47.19 22.19,91.56 60,120l680 510c35.63,26.56 84.38,26.56 120,0l680 -510c37.81,-28.44 60,-72.81 60,-120 0,-82.81 -67.19,-150 -150,-150l-1300 0zm-150 350l0 650c0,110.31 89.69,200 200,200l1200 0c110.31,0 200,-89.69 200,-200l0 -650 -680 510c-71.25,53.44 -168.75,53.44 -240,0l-680 -510z"/>
 </g>
</svg>
