<?xml version="1.0" encoding="UTF-8"?>
<!DOCTYPE svg PUBLIC "-//W3C//DTD SVG 1.1//EN" "http://www.w3.org/Graphics/SVG/1.1/DTD/svg11.dtd">
<!-- Creator: CorelDRAW (Versão OEM) -->
<svg xmlns="http://www.w3.org/2000/svg" xml:space="preserve" width="1600px" height="1600px" version="1.1" style="shape-rendering:geometricPrecision; text-rendering:geometricPrecision; image-rendering:optimizeQuality; fill-rule:evenodd; clip-rule:evenodd"
viewBox="0 0 1600 1600"
 xmlns:xlink="http://www.w3.org/1999/xlink"
 xmlns:xodm="http://www.corel.com/coreldraw/odm/2003">
 <defs>
  <style type="text/css">
   <![CDATA[
    .fil0 {fill:#FEFEFE;fill-rule:nonzero}
   ]]>
  </style>
 </defs>
 <g id="Camada_x0020_1">
  <metadata id="CorelCorpID_0Corel-Layer"/>
  <path id="location-dot.svg" class="fil0" d="M874.06 1562.07c160.32,-200.63 525.94,-686.88 525.94,-960 0,-331.25 -268.75,-600 -600,-600 -331.25,0 -600,268.75 -600,600 0,273.12 365.63,759.38 525.94,960 38.44,47.81 109.69,47.81 148.12,0l0 0zm-74.06 -1160c110.44,0 200,89.56 200,200 0,110.44 -89.56,200 -200,200 -110.44,0 -200,-89.56 -200,-200 0,-110.44 89.56,-200 200,-200l0 0z"/>
 </g>
</svg>
