<?xml version="1.0" encoding="UTF-8"?>
<!DOCTYPE svg PUBLIC "-//W3C//DTD SVG 1.1//EN" "http://www.w3.org/Graphics/SVG/1.1/DTD/svg11.dtd">
<!-- Creator: CorelDRAW (Versão OEM) -->
<?xml-stylesheet href="people-group-green.css" type="text/css"?>
<svg xmlns="http://www.w3.org/2000/svg" xml:space="preserve" width="210mm" height="297mm" version="1.1" style="shape-rendering:geometricPrecision; text-rendering:geometricPrecision; image-rendering:optimizeQuality; fill-rule:evenodd; clip-rule:evenodd"
viewBox="0 0 210000 297000"
 xmlns:xlink="http://www.w3.org/1999/xlink"
 xmlns:xodm="http://www.corel.com/coreldraw/odm/2003">
 <g id="Camada_x0020_1">
  <metadata id="CorelCorpID_0Corel-Layer"/>
  <path id="people-group.svg" class="fil0" d="M27017.5 52610.8c0.1,-8181.7 6635.1,-14816.7 14816.8,-14816.7 8181.7,0 14816.7,6635 14816.7,14816.7 0,8181.7 -6635,14816.7 -14816.7,14816.7 -8181.7,0 -14816.7,-6635 -14816.7,-14816.7l-0.1 0zm-2116.6 41724.8c-2645.9,2963.3 -4233.4,6905.6 -4233.4,11191.9 0,4286.3 1587.5,8228.5 4233.3,11191.9l0 -22410.2 0.1 26.4zm38205.8 -13044c-7858.1,6958.6 -12805.8,17145 -12805.8,28469.2 0,9075.2 3175,17409.6 8466.7,23944.8l0 5688.5c0,4683.1 -3783.5,8466.7 -8466.7,8466.7l-16933.3 0c-4683.1,0 -8466.7,-3783.5 -8466.7,-8466.7l0 -7090.8c-10001.3,-4762.5 -16933.4,-14949 -16933.4,-26775.8 0,-16377.7 13255.6,-29633.3 29633.3,-29633.3l8466.7 0c6350,0 12223.8,1984.4 17039.2,5371l0 26.4zm63394.2 58102.5l0 -5688.5c5291.7,-6535.2 8466.7,-14869.6 8466.7,-23944.8 0,-11324.2 -4947.7,-21510.6 -12805.8,-28495.6 4815.3,-3386.7 10689.1,-5371.1 17039.1,-5371.1l8466.7 0c16377.7,0 29633.3,13255.6 29633.3,29633.3 0,11826.9 -6932.1,22013.3 -16933.3,26775.8l0 7090.8c0,4683.1 -3783.5,8466.7 -8466.7,8466.7l-16933.3 0c-4683.1,0 -8466.7,-3783.5 -8466.7,-8466.7l0 0.1zm2116.6 -86783.3c0,-8181.7 6635,-14816.7 14816.7,-14816.7 8181.7,0 14816.7,6635 14816.7,14816.7 0,8181.7 -6635,14816.7 -14816.7,14816.7 -8181.7,0 -14816.7,-6635 -14816.7,-14816.7zm31750 41724.8l0 22410.2c2645.8,-2989.8 4233.3,-6905.6 4233.3,-11191.9 0,-4286.3 -1587.5,-8228.5 -4233.3,-11191.9l0 -26.4zm-67733.3 -56541.5c9350.4,0.1 16933.3,7583 16933.3,16933.4 0,9350.4 -7582.9,16933.3 -16933.3,16933.3 -9350.3,0 -16933.2,-7582.9 -16933.2,-16933.3 0,-9350.4 7582.9,-16933.3 16933.2,-16933.3l0 -0.1zm-21166.7 71966.7c0,4286.3 1587.5,8202.1 4233.3,11191.9l0 -22410.2c-2645.8,2989.8 -4233.3,6905.6 -4233.3,11191.9l0 26.4zm38100 -11191.9l0 22410.2c2645.8,-2989.8 4233.3,-6905.6 4233.3,-11191.9 0,-4286.3 -1587.5,-8228.5 -4233.3,-11191.9l0 -26.4zm16933.4 11191.9c0,11826.9 -6932.1,22013.3 -16933.3,26775.8l0 11324.2c0,4683.1 -3783.5,8466.7 -8466.7,8466.7l-16933.3 0c-4683.1,0 -8466.7,-3783.5 -8466.7,-8466.7l0 -11324.2c-10001.3,-4762.5 -16933.3,-14949 -16933.3,-26775.8 0,-16377.7 13255.6,-29633.3 29633.3,-29633.3l8466.7 0c16377.7,0 29633.3,13255.6 29633.3,29633.3z"/>
 </g>
</svg>
