<?xml version="1.0" encoding="UTF-8"?>
<!DOCTYPE svg PUBLIC "-//W3C//DTD SVG 1.1//EN" "http://www.w3.org/Graphics/SVG/1.1/DTD/svg11.dtd">
<!-- Creator: CorelDRAW (Versão OEM) -->
<svg xmlns="http://www.w3.org/2000/svg" xml:space="preserve" width="1600px" height="1600px" version="1.1" style="shape-rendering:geometricPrecision; text-rendering:geometricPrecision; image-rendering:optimizeQuality; fill-rule:evenodd; clip-rule:evenodd"
viewBox="0 0 1600 1600"
 xmlns:xlink="http://www.w3.org/1999/xlink"
 xmlns:xodm="http://www.corel.com/coreldraw/odm/2003">
 <defs>
  <style type="text/css">
   <![CDATA[
    .fil0 {fill:#FEFEFE;fill-rule:nonzero}
   ]]>
  </style>
 </defs>
 <g id="Camada_x0020_1">
  <metadata id="CorelCorpID_0Corel-Layer"/>
  <path id="phone.svg" class="fil0" d="M515.28 76.91c-24.07,-58.13 -87.5,-89.06 -148.13,-72.5l-275 75c-54.37,15 -92.19,64.38 -92.19,120.63 0,773.12 626.88,1400 1400,1400 56.25,0 105.63,-37.82 120.63,-92.19l75 -275c16.56,-60.63 -14.38,-124.06 -72.5,-148.13l-300 -125c-50.94,-21.25 -110,-6.56 -144.69,36.25l-126.25 154.07c-220,-104.07 -398.12,-282.19 -502.19,-502.19l154.07 -125.94c42.81,-35 57.5,-93.75 36.25,-144.69l-125 -300 0 -0.31z"/>
 </g>
</svg>
